<?xml version="1.0" standalone="no"?>
<!DOCTYPE svg PUBLIC "-//W3C//DTD SVG 20010904//EN"
 "http://www.w3.org/TR/2001/REC-SVG-20010904/DTD/svg10.dtd">
<svg version="1.0" xmlns="http://www.w3.org/2000/svg"
 width="840.000000pt" height="841.000000pt" viewBox="0 0 840.000000 841.000000"
 preserveAspectRatio="xMidYMid meet">

<g transform="translate(0.000000,841.000000) scale(0.100000,-0.100000)"
fill="#000000" stroke="none">
<path d="M4023 7990 c-206 -26 -418 -106 -603 -228 -105 -69 -278 -236 -353
-340 -228 -317 -316 -720 -238 -1099 55 -268 171 -489 360 -685 208 -217 434
-344 732 -409 138 -31 408 -33 539 -6 291 62 529 190 729 391 201 202 327 438
388 726 27 133 25 403 -5 539 -126 562 -537 974 -1090 1091 -112 24 -346 34
-459 20z m397 -415 c376 -90 666 -380 755 -755 8 -36 18 -114 21 -175 28 -497
-333 -943 -832 -1030 -513 -89 -1016 249 -1139 765 -25 106 -30 270 -11 377
74 425 392 748 816 828 92 18 296 12 390 -10z"/>
<path d="M4132 4789 c-46 -14 -109 -80 -122 -127 -7 -28 -9 -665 -8 -2083 l3
-2044 24 -38 c13 -21 42 -50 64 -65 34 -23 52 -27 107 -27 55 0 73 4 107 27
22 15 51 44 64 65 l24 38 0 2065 0 2065 -24 38 c-47 76 -151 113 -239 86z"/>
</g>
</svg>
